<svg id="Layer_1" enable-background="new 0 0 64 64" viewBox="0 0 64 64" xmlns="http://www.w3.org/2000/svg"><g fill="#343433"><path d="m47.3 38.3h-4v-.9c0-.8-.3-1.6-.9-2.1 0 .6-.3 1.2-.7 1.6 0 .1.1.3.1.5v.9h-4.6v-.9c-.3-.3-.6-.5-.9-.7-.1-.1-.3-.2-.4-.3-.1.3-.2.7-.2 1v.9h-4c-1.7 0-3.1 1.4-3.1 3.2l.8 9.3c.1 1.5 1.4 2.7 2.9 2.7h14.4c1.5 0 2.8-1.2 2.9-2.7l.8-9.4c.1-1.7-1.4-3.1-3.1-3.1zm.7 12.4c-.1.6-.6 1.1-1.2 1.1h-14.5c-.6 0-1.2-.5-1.2-1.1l-.8-9.2c0-.8.6-1.4 1.4-1.4h15.6c.8 0 1.4.6 1.4 1.4z"/><path d="m40.7 33.6c-.2-.2-.4-.3-.6-.5-1-.9-2.3-2.1-3.2-3.1-.6-1-1-2.1-1.4-3.2-.6-1.5-1-3-1.5-4.4-.2-.7-.4-1.3-.6-2-.4-1.2-1-1.9-2.2-2.4-.9-.3-2-.6-2.5-.7-.3-.1-.5-.1-.8-.2 0 .1-.1.1-.1.2-.3.5-.6.9-.9 1.3-.5.7-1 1.3-1.5 2-.3.3-.5.7-.8 1v.1c-.1.1-.1.1-.2.2 0-.1 0-.3-.1-.5-.2-1.3-.3-2.4-.3-2.6 0-.1.1-.3.2-.4 0 0 0 0 0-.1v-.1c0-.1 0-.1.1-.2 0 0 0 0 0-.1 0-.1.1-.2.1-.4 0-.1-.1-.2-.1-.4 0-.1-.1-.3-.2-.3s-.1-.1-.2-.1h-.2c-.1 0-1 0-1.3 0-.1 0-.2 0-.2 0-.1 0-.1 0-.2 0s-.1.1-.2.1c0 0-.1.1-.1.1 0 .1-.1.1-.1.2s-.1.1-.1.2-.1.2-.1.3.1.3.1.4v.1c0 .1 0 .1.1.2v.1c.1.1.1.3.2.4 0 .1-.2 1.3-.3 2.6 0 .2 0 .3-.1.5 0-.1-.1-.1-.2-.2l-.9-1.1c-.5-.6-1-1.3-1.5-2-.4-.5-.7-1-1.1-1.5-1.2.2-2.4.6-3.4 1.1-.2.1-.4.3-.5.4-.6.6-.6 1.5-.6 2.3v.6 2.6 4.3 2.5c0 .7.2 1.4.4 2 .2.5.7.9 1.1 1.4l.2.2v1.6c0 .6 0 1.3-.1 1.9-.1 2.3 0 9.5.1 10.8 0 .3.1.6.1.9.1 1.2.3 7.3.4 8.5v2.3c0 1.1.9 2 2 2 1 0 1.8-.7 2-1.7s.4-3.2.6-5.7c.1-.7.1-1.5.2-2.2.3-3.2.6-6.5.8-7.9.1-.7.3-2.7 1.4-2.6h.2s.1 0 .2 0c1.1-.1 1.2 1.9 1.4 2.6.2 1.4.5 4.7.8 7.9.1.7.1 1.5.2 2.2.2 2.4.5 4.6.6 5.7.1 1 1 1.7 2 1.7 1.1 0 2-.9 2-2 0-.8 0-1.7 0-2.3s.1-2.2.1-3.8c-1.3-.7-2.3-2-2.4-3.6l-.8-9.4c0-1.3.5-2.5 1.4-3.4.6-.6 1.4-1.1 2.3-1.2v-.1c0-.8.1-1.6.1-2.5.1-1.7.1-4.1.1-5.9 0-.2 0-.5 0-.7s.2.4.4.7c0 .1 0 .1.1.2.3.5 2.1 4.1 2.6 4.7.5.5.9.8 1.4 1.2.9.7 1.7 1.4 2.9 2.3.8.5 1.8.4 2.5-.3 0-.1.1-.1.2-.2.9-.6.9-1.9 0-2.6zm-11.9-7.4h-1.1v1.1c0 .4-.3.8-.8.8-.4 0-.8-.3-.8-.8v-1h-1.1c-.4 0-.8-.3-.8-.8 0-.4.4-.8.8-.8h1v-1.1c0-.4.3-.8.8-.8.4 0 .8.4.8.8v1.1h1.1c.2 0 .4.1.5.2s.2.3.2.5c.1.4-.2.8-.6.8z"/><path d="m42 47.2h-1.4v1.4c0 .6-.5 1-1 1-.6 0-1-.5-1-1v-1.4h-1.6c-.6 0-1.1-.5-1.1-1.1 0-.6.5-1 1.1-1h1.4v-1.4c0-.6.5-1.1 1-1.1.6 0 1 .5 1 1.1v1.4h1.6c.3 0 .5.1.7.3s.3.5.3.7c.1.7-.4 1.1-1 1.1z"/><path d="m27.8 7.5v-.2c0-.2 0-.3.1-.5.1-.5.2-.9.2-1.4 0-1.5-.8-2.8-2.1-3.4-.2-.1-.3-.1-.4-.2-.8-.3-1.7-.5-2.6-.5-.2 0-.4 0-.6 0-.5 0-1.3.1-1.9.4-.1 0-.1.1-.2.1-.2.2-.5.4-.6.6-.3.2-.5.4-.7.6-.3.1-.5.3-.6.6-.3.5-.4.9-.4 1.4v1.5c0 .2.1.4.1.6 0 .1.1.3.1.4 0 0 0 0-.1 0-.5.1-.8.7-.8 1.2v.4c0 .2 0 .3.1.5v.3c.1.8.5 1.3 1 1.7v.1c.5 2 2.1 3.5 3.9 3.8h.6c1.4 0 2.7-.8 3.6-2.2.2-.3.3-.6.5-.9.1-.1.1-.2.1-.4s.1-.3.1-.3c.1-.1.2-.2.3-.3l.2-.2c.4-.4.6-.9.6-1.3 0-.1 0-.2 0-.3 0-.2.1-.3.1-.5 0-.1 0-.3 0-.4.1-.5-.1-1-.6-1.2zm-.2 1.2v.4c0 .1 0 .3-.1.4v.3c0 .4-.1.6-.3.7-.1 0-.1.1-.2.1 0 0 0 0-.1.1s0 .1-.1.1c-.1.2-.3.5-.3.5-.3.7-.6 1.3-1 1.8-.8 1-1.8 1.5-3 1.3-.5-.1-1-.3-1.4-.6-.8-.4-1.4-1.2-1.7-2 0-.1-.3-.8-.4-1.1h-.1s0 0-.1 0c-.4-.2-.5-.7-.5-.9 0-.1 0-.2 0-.3s0-.3-.1-.4c0-.1 0-.2 0-.3v-.1c0-.1 0-.2.1-.2h.1.1.1.1c.1 0 .1-.1.2-.2s.1-.2.1-.4 0-.4-.1-.6c1 0 2.1 0 3.1-.2.3-.1.6-.1.9-.2.9-.2 1.7-.6 2.4-1.2.4.5.9.8 1.4 1h.1c0 .2-.1.3-.1.5v.2c0 .2-.1.4 0 .6 0 .1.1.1.1.2.2.2.4.2.5.2.3 0 .3.1.3.3z"/></g></svg>