<svg enable-background="new 0 0 512 512" viewBox="0 0 512 512" xmlns="http://www.w3.org/2000/svg"><g id="_x31_05_Injection"><g><path d="m304.369 10.785c-3.769-2-8.384-.538-10.383 3.23l-34.073 64.608-4.154-2.153c-16.152-8.46-35.996-2.23-44.456 13.844l-15.998 30.612c-11.383-5.922-25.459-1.538-31.381 9.691l-111.371 212.36c-5.923 11.383-1.692 25.382 9.845 31.458l6.922 3.615-14.998 28.766c-15.229-4.846-31.919 1.846-39.38 16.152-8.537 16.229-2.307 36.38 13.921 44.841l55.84 29.304c16.152 8.46 36.303 2.153 44.764-14.075 7.614-14.46 3.384-31.919-9.076-41.533l15.075-28.766 6.999 3.692c11.306 5.922 25.459 1.538 31.381-9.845l111.371-212.283c5.999-11.383 1.538-25.382-9.845-31.304l16.075-30.612c8.383-16.075 2.23-35.996-13.844-44.457l-4.077-2.153 34.073-64.608c2-3.77.539-8.385-3.23-10.384zm-188.516 465.099c-4.692 8.922-15.536 11.999-23.997 7.614l-55.917-29.304c-8.614-4.538-11.999-15.383-7.383-24.074 4.461-8.537 15.306-12.076 23.997-7.537 5.461 2.923 55.84 29.304 55.84 29.304 8.691 4.538 11.998 15.306 7.46 23.997zm-8.845-42.072-38.842-20.382 14.845-28.227 38.841 20.382zm53.224-34.381c-2 3.923-6.768 5.384-10.614 3.384-1.154-.692-75.453-39.611-80.144-41.995-.154-.077-.231-.154-.231-.154-3.692-2.154-4.999-6.768-3.076-10.537l11.383-21.613 6.153 3.23c3.769 2 8.384.538 10.383-3.23 2-3.769.538-8.384-3.23-10.384l-6.153-3.23 12.998-24.92 11.383 5.922c3.769 2 8.384.462 10.384-3.23 1.923-3.769.461-8.383-3.307-10.383l-11.307-5.923 13.075-24.92 94.45 48.61zm117.602-274.198-16.075 30.612c-1.154-.615-50.456-26.458-52.84-27.766l15.998-30.612c4.538-8.537 14.998-11.922 23.69-7.383 1.538.923 20.305 10.614 21.844 11.46 8.537 4.46 11.844 15.151 7.383 23.689z"/><path d="m487.117 17.476h-135.907c-7.615 0-13.768 6.153-13.768 13.767v70.684c0 7.537 6.153 13.691 13.768 13.691h4.23v322.962c0 34.996 28.612 63.531 63.762 63.531s63.685-28.535 63.685-63.531v-53.301c0-4.231-3.461-7.691-7.691-7.691-4.231 0-7.691 3.461-7.691 7.691v53.301c0 26.535-21.69 48.148-48.302 48.148-26.689 0-48.379-21.613-48.379-48.148v-126.215h96.681v33.996c0 4.23 3.461 7.691 7.691 7.691s7.691-3.461 7.691-7.691v-230.742h4.23c7.614 0 13.767-6.153 13.767-13.691v-70.684c0-7.615-6.153-13.768-13.767-13.768zm-19.613 205.207h-96.681v-107.064h96.681z"/></g></g><g id="Layer_1"/></svg>