<svg id="Layer_1" enable-background="new 0 0 507.667 507.667" height="512" viewBox="0 0 507.667 507.667" width="512" xmlns="http://www.w3.org/2000/svg"><g><path d="m227.028 478.055c0 13.301 10.783 24.084 24.084 24.084s24.084-10.783 24.084-24.084v-34.642h-48.169v34.642z"/><path d="m285.595 478.055c0 13.301 10.783 24.084 24.084 24.084s24.084-10.783 24.084-24.084v-34.642h-48.169v34.642z"/><ellipse cx="280.396" cy="47.124" rx="41.596" ry="41.596" transform="matrix(.025 -1 1 .025 226.373 326.272)"/><path d="m283.833 323.78h23.842c4.004 0 7.814.829 11.271 2.32h40.718l-10.353-53.455h-8.65z"/><path d="m401.491 272.645c1.069.753 5.985 7.8 16.147 7.8 6.673 0 12.963-3.29 16.753-9.024-2.809.792-5.769 1.225-8.831 1.225h-24.069z"/><ellipse cx="43.313" cy="319.552" rx="41.962" ry="41.962" transform="matrix(.793 -.609 .609 .793 -185.629 92.451)"/><g><path d="m210.357 380.735c.166.004.337.006.514.006-.235-.007-.4-.008-.514-.006z"/><path d="m244.357 269.694 12.776-10.977-39.741-16.597-5.34 27.574z"/><path d="m425.559 218.823h-96.941c-3.473 0-6.859.866-9.893 2.458 9.152 8.292 12.57 21.75 7.539 33.796-6.354 15.213-23.884 22.536-39.244 16.122l-18.344-7.661-19.971 17.16h-124.311c-13.213.009-23.916 10.814-23.907 24.027l.036 51.653c.009 13.212 10.728 24.373 23.94 24.364h85.779l-45.923-26.095 43.819 15.554c2.042.725 4.194 1.095 6.361 1.095h93.177c10.502 0 19.016-8.513 19.016-19.015s-8.514-19.015-19.016-19.015h-89.902l-40.733-14.458 37.458 4.974h53.264l68.757-62.314h89.04c11.775 0 21.321-9.546 21.321-21.321s-9.547-21.324-21.322-21.324z"/></g><path d="m464.26 338.455-131.744-.142c2.326 4.128 3.659 8.89 3.659 13.966 0 15.74-12.76 28.462-28.5 28.462h156.585c11.775 0 21.321-9.19 21.321-20.965s-9.545-21.321-21.321-21.321z"/><path d="m487.667 391.387h-467.667c-11.046 0-20 8.954-20 20s8.954 20 20 20h6.928v50.753c0 11.046 8.954 20 20 20s20-8.954 20-20v-50.753h373.811v50.753c0 11.046 8.954 20 20 20s20-8.954 20-20v-50.753h6.928c11.046 0 20-8.954 20-20s-8.954-20-20-20z"/><path d="m199.301 153.703 4.243 59.901c.536 7.564 5.289 14.18 12.286 17.102l75.018 31.33c10.294 4.299 22.01-.623 26.254-10.786 4.271-10.228-.557-21.983-10.786-26.254l-63.605-26.564-3.369-47.565 10.493 39.596 58.242 24.507c5.795-4.728 13.046-7.325 20.542-7.325h8.105l-5.204-29.143 10.377 29.143h50.728l-12.485-12.271c-8.068-22.505-14.309-40.173-18.565-52.559-9.312-27.097-24.925-40.836-46.406-40.836-22.562 0-45.078 0-67.675 0-28.056 0-50.167 23.853-48.193 51.724z"/></g></svg>