<svg id="Layer_1" enable-background="new 0 0 500 500" viewBox="0 0 500 500" xmlns="http://www.w3.org/2000/svg"><path clip-rule="evenodd" d="m373.397 320.69c41.498-30.166 66.274-78.747 66.274-129.978 0-88.537-72.034-160.552-160.558-160.552-86.788 0-158.797 70.561-160.514 157.305-.031 1.26-.401 2.52-1.078 3.598l-57.192 92.172h32.892c6.274 0 11.382 4.951 11.382 11.031v72.203c0 5.315 0 11.313 1.109 12.78.865 1.153 5.002 2.225 12.253 3.184 14.428 1.893 34.528.639 49.195-.263 6.224-.389 11.131-.702 14.503-.702 3.917 0 7.095 3.178 7.095 7.089v81.285h82.576v-164.082c-52.09-25.052-108.317-89.758-108.317-146.368 0-37.994 30.912-68.913 68.913-68.913 20.633 0 35.769 17.643 46.713 17.643 10.73 0 25.822-17.643 46.267-17.643 38.001 0 68.913 30.918 68.913 68.913 0 56.609-56.214 121.316-108.305 146.368v164.08h102.288l-17.286-142.563c-.313-2.564.796-5.077 2.877-6.587zm-93.469-29.828-1.504.708c-22.064-10.345-41.4-25.792-57.775-43.748-20.395-22.369-40.79-54.723-40.79-85.992 0-30.273 24.644-54.904 54.917-54.904 9.573 0 18.39 5.786 26.487 10.467v48.731h-44.5c-1.717 0-3.115 1.391-3.115 3.121v28.085c0 1.73 1.385 3.121 3.115 3.121h44.5v44.494c0 1.724 1.392 3.115 3.121 3.115h28.079c1.724 0 3.121-1.391 3.121-3.115v-44.494h44.482c1.73 0 3.127-1.391 3.127-3.121v-28.085c0-1.73-1.398-3.121-3.127-3.121h-44.482v-48.58c8.11-4.705 16.887-10.617 26.481-10.617 30.285 0 54.905 24.619 54.905 54.904 0 31.269-20.383 63.623-40.777 85.992-15.55 17.047-35.312 33.167-56.265 43.039z" fill-rule="evenodd"/></svg>