<svg id="Layer_1" viewBox="0 0 512 512" xmlns="http://www.w3.org/2000/svg" data-name="Layer 1"><g fill="rgb(0,0,0)"><path d="m89.83154 166.33472h34.69824c3.59717 0 6.51367-2.91626 6.51367-6.51343v-29.0459h29.0459c3.59717 0 6.51318-2.91602 6.51318-6.51343v-34.69824c0-3.59717-2.91602-6.51343-6.51318-6.51343h-29.0459v-29.0459c0-3.59717-2.9165-6.51343-6.51367-6.51343h-34.69824c-3.59717 0-6.51318 2.91626-6.51318 6.51343v29.0459h-29.0459c-3.59766 0-6.51367 2.91626-6.51367 6.51343v34.69824c0 3.59741 2.91602 6.51343 6.51367 6.51343h29.0459v29.0459c0 3.59717 2.91602 6.51343 6.51318 6.51343z"/><path d="m492.46777 50.06592c-8.54395-11.146-21.5-17.53857-35.54395-17.53857h-22.06201c-2.62695-9.52759-11.3501-16.52734-21.71289-16.52734-12.44141 0-22.52734 10.08569-22.52734 22.5271s10.08594 22.52734 22.52734 22.52734c10.36279 0 19.08545-6.99976 21.71289-16.5271h22.06201c10.28125 0 19.76562 4.67969 26.02051 12.83936s8.31152 18.5332 5.6416 28.46191l-21.76562 80.93823h-4.03662c-3.48193 0-6.53027 2.33691-7.43408 5.69946l-16.78711 62.42383c-7.04834 26.2124-30.92969 44.52002-58.07324 44.52002h-36.7373c-27.14355 0-51.0249-18.30762-58.07324-44.52002l-16.78711-62.42383c-.90381-3.36255-3.95215-5.69946-7.43408-5.69946h-4.03662l-21.76562-80.93823c-2.66992-9.92871-.61328-20.30225 5.6416-28.46191s15.73926-12.83936 26.02051-12.83936h22.06201c2.62744 9.52734 11.3501 16.5271 21.71289 16.5271 12.44141 0 22.52734-10.08569 22.52734-22.52734s-10.08594-22.5271-22.52734-22.5271c-10.36279 0-19.08594 6.99976-21.71289 16.52734h-22.06201c-14.04395 0-27 6.39258-35.54395 17.53857-8.54492 11.146-11.35352 25.31689-7.70605 38.87891l20.92969 77.82812c-5.01172.06494-8.63916 4.83398-7.33301 9.69189l17.89014 66.52637c10.42578 38.76587 45.09326 66.13599 84.96924 67.54443v114.83691c0 18.43555-14.99805 33.43408-33.43359 33.43408s-33.43457-14.99854-33.43457-33.43408v-44.73242c0-42.25293-34.375-76.62793-76.62793-76.62793h-23.49902c-29.4043 0-56.57617 17.1626-69.22168 43.72363-1.4248 2.9917-.1543 6.57178 2.83789 7.99658 2.98926 1.42383 6.57227.1543 7.99609-2.83838 10.66797-22.40479 33.58594-36.88184 58.3877-36.88184h23.49902c35.63574 0 64.62793 28.99219 64.62793 64.62793v44.73242c0 25.05225 20.38184 45.43408 45.43457 45.43408s45.43359-20.38184 45.43359-45.43408v-114.7688h27.96582c41.22314 0 77.4917-27.80347 88.19727-67.61255l17.89062-66.52637c1.30615-4.85791-2.32129-9.62695-7.33301-9.69189l20.92969-77.82812c3.64746-13.56201.83887-27.73291-7.70605-38.87891z"/><circle cx="118.497" cy="438.861" r="25.333"/><path d="m377.71777 328.16553c-3.31348 0-6 2.68652-6 6v91.20654c0 35.63574-28.99219 64.62793-64.62793 64.62793s-64.62793-28.99219-64.62793-64.62793v-47.22705c0-23.67676-19.2627-42.93896-42.93945-42.93896h-28.49023c-23.42383 0-42.51416 18.8562-42.91943 42.18506-3.13525-.48828-6.3457-.74561-9.61572-.74561-34.30566 0-62.21582 27.90967-62.21582 62.21533s27.91016 62.21533 62.21582 62.21533c21.95215 0 41.85645-11.22119 53.24512-30.0166 1.7168-2.83447.81152-6.52393-2.02246-8.24072-2.83789-1.71924-6.52344-.81152-8.24121 2.02197-9.19434 15.17529-25.26172 24.23535-42.98145 24.23535-27.68945 0-50.21582-22.52637-50.21582-50.21533s22.52637-50.21533 50.21582-50.21533 50.21484 22.52637 50.21484 50.21533c0 3.31348 2.68652 6 6 6s6-2.68652 6-6c0-26.71509-16.92773-49.54663-40.61816-58.34424v-2.37158c0-17.05957 13.87891-30.93896 30.93848-30.93896h28.49023c17.06055 0 30.93945 13.87939 30.93945 30.93896v47.22705c0 42.25293 34.375 76.62793 76.62793 76.62793s76.62793-34.375 76.62793-76.62793v-91.20654c0-3.31348-2.68652-6-6-6z"/><path d="m170.52734 180.2583c2.50684-2.16699 2.78223-5.95557.61523-8.46289-2.16602-2.50586-5.9541-2.7832-8.46289-.61523-15.40234 13.31348-35.1123 20.64551-55.49902 20.64551-46.82129 0-84.91309-38.0918-84.91309-84.9126s38.09181-84.91309 84.91309-84.91309 84.91309 38.0918 84.91309 84.91309c0 15.53662-4.23242 30.73193-12.23926 43.94336-1.71777 2.83398-.8125 6.52344 2.02051 8.24121 2.83691 1.71777 6.52441.81299 8.24121-2.02148 9.14453-15.0874 13.97754-32.43311 13.97754-50.16309 0-53.43799-43.47461-96.91309-96.91309-96.91309s-96.91308 43.4751-96.91308 96.91309 43.47461 96.9126 96.91309 96.9126c23.26758 0 45.76465-8.36963 63.34668-23.56738z"/></g></svg>