<svg id="Capa_1" enable-background="new 0 0 511.998 511.998" height="512" viewBox="0 0 511.998 511.998" width="512" xmlns="http://www.w3.org/2000/svg"><path d="m322.045 493.897c11.308 11.253 28.064 16.943 49.858 16.943 1.651 0 3.33-.032 5.039-.098 35.334-1.352 68.648-15.885 93.807-40.923 25.177-25.055 39.79-58.243 41.15-93.45.934-24.199-4.771-42.617-16.956-54.743l-45.388-45.17-173 172.169z"/><path d="m189.953 18.101c-12.165-12.106-30.634-17.773-54.897-16.845-35.334 1.352-68.649 15.885-93.807 40.923-25.177 25.055-39.79 58.243-41.15 93.45-.934 24.199 4.771 42.617 16.956 54.744l45.388 45.17 173-172.17z"/><path d="m470.749 42.179c-25.158-25.038-58.473-39.571-93.807-40.922-24.264-.928-42.732 4.739-54.897 16.845l-304.99 303.524c-12.186 12.127-17.89 30.545-16.956 54.743 1.36 35.207 15.974 68.395 41.15 93.45 25.158 25.038 58.473 39.571 93.807 40.923 1.709.065 3.388.098 5.039.098 21.794 0 38.551-5.69 49.858-16.943l304.99-303.525c12.186-12.127 17.89-30.545 16.956-54.744-1.36-35.206-15.973-68.394-41.15-93.449zm-263.685 165.12c5.405-5.379 14.169-5.379 19.574 0s5.405 14.101 0 19.48-14.169 5.379-19.574 0-5.405-14.1 0-19.48zm-.002 77.922c5.405-5.379 14.168-5.379 19.574 0 5.405 5.379 5.405 14.101 0 19.48s-14.169 5.379-19.574 0-5.405-14.101 0-19.48zm-39.148-38.96c5.405-5.379 14.169-5.379 19.574 0s5.405 14.101 0 19.48-14.169 5.379-19.574 0-5.405-14.1 0-19.48zm97.869 97.399c-5.405 5.379-14.169 5.379-19.574 0s-5.405-14.101 0-19.48 14.169-5.379 19.574 0c5.406 5.38 5.406 14.101 0 19.48zm.003-77.921c-5.405 5.379-14.169 5.379-19.574 0s-5.405-14.101 0-19.48 14.169-5.379 19.574 0 5.405 14.101 0 19.48zm.002-77.922c-5.405 5.379-14.169 5.379-19.574 0s-5.405-14.101 0-19.48 14.169-5.379 19.574 0c5.406 5.38 5.406 14.101 0 19.48zm39.146 116.881c-5.405 5.379-14.168 5.379-19.574 0s-5.405-14.101 0-19.48 14.169-5.379 19.574 0c5.405 5.38 5.405 14.101 0 19.48zm.002-77.921c-5.405 5.379-14.168 5.379-19.574 0-5.405-5.379-5.405-14.101 0-19.48s14.169-5.379 19.574 0 5.405 14.101 0 19.48zm39.148 38.959c-5.405 5.379-14.169 5.379-19.574 0s-5.405-14.101 0-19.48 14.169-5.379 19.574 0c5.405 5.38 5.405 14.101 0 19.48z"/></svg>