<svg id="Capa_1" enable-background="new 0 0 513.802 513.802" height="512" viewBox="0 0 513.802 513.802" width="512" xmlns="http://www.w3.org/2000/svg"><path d="m482.901 303.763v-167.763c0-41.353-33.647-75-75-75s-75 33.647-75 75v331c0 8.276-6.724 15-15 15h-151c-8.276 0-15-6.724-15-15v-32.763c17.422-6.213 30-23.707 30-43.237v-1.069c50.815-7.295 91-51.123 91-103.931v-135h-272v135c0 52.808 40.185 96.636 91 103.931v1.069c0 19.53 12.578 37.024 30 43.237v32.763c0 24.814 20.186 45 45 45h151c24.814 0 45-20.186 45-45v-331c0-24.814 20.186-45 45-45s45 20.186 45 45v167.763c-17.422 6.213-30 22.707-30 42.237v91c0 8.291 6.709 15 15 15h15v46.802c0 8.291 6.709 15 15 15s15-6.709 15-15v-46.802h15c8.291 0 15-6.709 15-15v-91c0-19.53-12.578-36.024-30-42.237zm-376-122.763h60c8.291 0 15 6.709 15 15s-6.709 15-15 15h-60c-8.291 0-15-6.709-15-15s6.709-15 15-15zm0 60h60c8.291 0 15 6.709 15 15s-6.709 15-15 15h-60c-8.291 0-15-6.709-15-15s6.709-15 15-15zm0 90c-8.291 0-15-6.709-15-15s6.709-15 15-15h60c8.291 0 15 6.709 15 15s-6.709 15-15 15z"/><path d="m272.901 76c0-8.291-6.709-15-15-15h-47.479c-2.9-14.429-9.961-29.337-20.464-39.562-27.92-28.682-78.486-28.389-105.82-.293-10.723 10.444-17.843 25.412-20.758 39.855h-47.479c-8.291 0-15 6.709-15 15v45h272z"/></svg>