<svg height="512pt" viewBox="0 0 512 512" width="512pt" xmlns="http://www.w3.org/2000/svg"><path d="m512 174.945312c0-38.015624-30.929688-68.945312-68.945312-68.945312-38.015626 0-68.941407 30.929688-68.941407 68.945312 0 32.863282 23.117188 60.410157 53.941407 67.28125v138.773438c0 55.691406-45.308594 101-101 101h-36.292969c-52.996094 0-96.589844-41.035156-100.683594-93 45.699219-3.636719 87.910156-23.5 120.160156-56.875l20.847657-21.570312-20.699219-20.003907 9.816406-11.972656c19.46875-23.738281 30.1875-53.71875 30.1875-84.417969v-118.089844c0-27.511718-22.386719-49.894531-49.898437-49.894531h-11.15625v-26.175781h-87v87h87v-30.824219h11.15625c10.972656 0 19.898437 8.925781 19.898437 19.894531v118.09375c0 23.78125-8.304687 47.003907-23.382813 65.394532l-8.265624 10.078125-20.40625-19.722657-20.847657 21.570313c-19.234375 19.90625-45.0625 30.867187-72.726562 30.867187-27.660157 0-53.488281-10.960937-72.722657-30.867187l-20.847656-21.570313-19.925781 19.257813-7.882813-9.613281c-15.078124-18.390625-23.382812-41.613282-23.382812-65.394532v-118.09375c0-10.96875 8.925781-19.894531 19.898438-19.894531h14.167968v30.824219h87v-87h-87v26.175781h-14.167968c-27.511719 0-49.898438 22.382813-49.898438 49.894531v118.09375c0 30.699219 10.71875 60.679688 30.1875 84.414063l9.433594 11.507813-21.179688 20.46875 20.847656 21.574218c32.382813 33.511719 74.808594 53.40625 120.726563 56.921875 4.175781 68.496094 61.21875 122.949219 130.746094 122.949219h36.292969c72.234374 0 131-58.765625 131-131v-138.773438c30.824218-6.871093 53.945312-34.417968 53.945312-67.28125zm0 0"/></svg>