<svg id="Layer_1" enable-background="new 0 0 184.04 198.376" height="512" viewBox="0 0 184.04 198.376" width="512" xmlns="http://www.w3.org/2000/svg"><g><path d="m61.229 191.991h13.718v-49.5h-13.174v45.885c0 1.258-.191 2.471-.544 3.615z"/><path d="m37.229 191.991h.488c-.095-.31-.173-.627-.244-.947-.071.32-.148.637-.244.947z"/><path d="m13.173 188.376v-45.885h-13.173v49.5h13.717c-.352-1.144-.544-2.357-.544-3.615z"/><path d="m8.344 68.61c1.448-1.478 3.067-4.842 3.109-12.442-1.483.68-2.625 1.299-3.418 1.765-2.009.9-3.512 2.791-3.799 5.135-.042.34-.344 2.852-.72 7.078.257-.039.532-.061.834-.054 1.695.04 2.964-.431 3.994-1.482z"/><path d="m13.173 130.709c0-6.782 5.518-12.3 12.3-12.3 5.865 0 10.777 4.13 12 9.632 1.223-5.502 6.135-9.632 12-9.632 6.782 0 12.3 5.518 12.3 12.3v3.591c1.073.962 2.47 1.577 4.021 1.652.107.005.213.007.319.007 3.446 0 6.319-2.708 6.487-6.187 1.756-36.386-1.741-65.483-1.891-66.705-.287-2.342-1.79-4.234-3.797-5.135-3.455-2.029-13.536-6.999-29.438-6.999-3.313 0-6.368.219-9.169.579-.199 6.871-.626 14.437-5.272 19.494-7.064 7.689-14.242 6.88-17 6.175-1.022-.261-2.091-.682-2.985-1.247-.888 12.093-1.777 31.596-.704 53.837.168 3.479 3.042 6.187 6.487 6.187.105 0 .212-.002.319-.007 1.552-.075 2.949-.69 4.023-1.653v-3.589zm45.909-51.435c.533 7.96 1.026 18.673 1.001 30.91-1.836-4.087-3.822-7.991-4.327-13.952-.394-4.627 1.178-10.884 3.326-16.958zm-43.218-.005c2.149 6.076 3.723 12.335 3.329 16.964-.507 5.963-2.494 9.867-4.33 13.956-.026-12.242.467-22.958 1.001-30.92z"/><path d="m15.473 188.376c0 5.523 4.478 10 10 10s10-4.477 10-10v-57.667c0-5.523-4.478-10-10-10s-10 4.477-10 10z"/><path d="m39.473 188.376c0 5.523 4.478 10 10 10s10-4.477 10-10v-57.667c0-5.523-4.478-10-10-10s-10 4.477-10 10z"/><path d="m21.34 69.451c5.371-5.846 4.362-16.155 4.896-23.937-3.781-2.034-6.952-5.061-9.163-8.729-2.306 3.614-3.711 8.769-3.382 16.178.744 16.755-4.855 19.536-9.396 19.429s6.717 8.3 17.045-2.941z"/><circle cx="37.473" cy="24.541" r="21.5"/><path d="m135.58 44.771c3.65-6.988 4.526-14.06 4.69-18.163-2.067-.585-3.59-2.465-3.59-4.72 0-2.721 2.206-4.926 4.926-4.926 2.721 0 4.926 2.206 4.926 4.926 0 2.125-1.353 3.919-3.239 4.611-.129 4.161-.943 11.241-4.463 18.5 12.399-.031 22.442-10.091 22.442-22.499 0-12.427-10.074-22.5-22.5-22.5-12.428 0-22.5 10.073-22.5 22.5.001 11.342 8.393 20.72 19.308 22.271z"/><path d="m127.856 141.545h55.5v49.5h-55.5z"/><path d="m150.406 56.414c1.833-1.437 4.029-2.196 6.353-2.196 3.188 0 6.145 1.438 8.109 3.944 3.505 4.469 2.721 10.956-1.747 14.461l-17.887 14.028c1.346 7.652 2.432 15.843 2.453 23.799h-1.278-7.155c.276-.84.561-1.673.854-2.5.721-2.04 1.489-4.042 2.306-6-.5-4.121-.774-8.262-.866-12.407l-7.417 5.817c-.503.395-1.044.734-1.608 1.027-.206 2.147-.345 4.136-.404 5.896.919 1.924 1.881 3.813 2.88 5.668.453.841.917 1.673 1.386 2.5h-25.445c-6.562 0-12.007 5.074-12.469 11.619l-4.333 61.344c-.486 6.887 4.701 12.863 11.588 13.35.3.021.598.032.894.032 6.503 0 11.991-5.033 12.456-11.62l3.513-49.725h23.546 14.295c.511 0 1.011-.04 1.506-.099 8.598-.261 18.048-2.913 20.906-17.617 2.586-22.215 1.123-35.346-5.682-55.52-5.035-14.643-17.41-19.279-25.947-17.15-3.711.925-6.517 3.701-8.269 7.36-.078.021-.149.063-.205.15-1.615 2.541-3.326 7.593-4.892 13.693z"/><path d="m82.555 74.749c-.006-1.194.186-2.392.602-3.549.087-.241.184-.477.287-.709-2.004-.413-3.511-2.187-3.511-4.314 0-2.433 1.972-4.405 4.405-4.405 2.129 0 3.905 1.511 4.316 3.518 1.119-.502 2.333-.808 3.594-.882 3.054-.999 7.242-.32 11.642.4 3.135.513 6.453 1.055 9.718 1.055 4.202 0 8.315-.899 11.832-3.919 3.589-3.081 6.144-8.155 7.714-15.294-.973-.227-1.927-.504-2.853-.842-1.403 6.552-3.661 11.152-6.815 13.86-5.188 4.454-12.266 3.299-19.111 2.179-5.013-.819-9.783-1.598-13.604-.105-1.511-2.389-4.169-3.981-7.205-3.981-4.709 0-8.526 3.817-8.526 8.526-.003 4.367 3.282 7.962 7.515 8.462z"/><path d="m85.32 71.979c-1.496 4.157.661 8.74 4.818 10.236l34.927 12.568c.882.317 1.798.473 2.708.473 1.766 0 3.509-.584 4.938-1.705l28.989-22.737c3.477-2.727 4.084-7.756 1.357-11.232-2.726-3.476-7.754-4.085-11.232-1.358l-25.506 20.006-30.762-11.07c-4.162-1.497-8.741.661-10.237 4.819z"/></g></svg>